<svg id="Layer_1" data-name="Layer 1" xmlns="http://www.w3.org/2000/svg" viewBox="0 0 40 40"><defs><style>.cls-1{fill:#c1272d;fill-opacity:0.7;stroke:#005172;stroke-miterlimit:10;stroke-width:2px;}.cls-2{fill:#005172;}.cls-3{fill:#3095b4;}</style></defs><circle class="cls-1" cx="20" cy="20" r="19"/><g id="DNB"><path class="cls-2" d="M11.14,9.27l20.63,21.4-2.16,2.07-3.28-3.37-3.19,3.11a7.43,7.43,0,0,1-5.61,2.16h0A7.59,7.59,0,0,1,12,32.22a7.39,7.39,0,0,1-2.16-5.61,7.56,7.56,0,0,1,2.42-5.52L14.42,19l2.07,2.16-2.15,2.07a4.5,4.5,0,0,0-1.47,3.36,4.74,4.74,0,0,0,1.38,3.45,4.5,4.5,0,0,0,3.37,1.47h0a4.75,4.75,0,0,0,3.45-1.38L24.26,27,11.14,13.67V9.27Z"/><path class="cls-3" d="M30,15a7.44,7.44,0,0,1,2.16,5.61,7.59,7.59,0,0,1-2.42,5.52l-.26.26L27.45,24.2l.26-.26a4.5,4.5,0,0,0,1.47-3.37,4.75,4.75,0,0,0-1.38-3.45,4.84,4.84,0,0,0-1.73-1.21V12.72A7.69,7.69,0,0,1,30,15"/><path class="cls-3" d="M13.13,6.25,11.66,7.72l2.07,2.15L15.2,8.49a3.6,3.6,0,0,1,5,5.18l-1.46,1.38,2.07,2.16,1.46-1.38a6.62,6.62,0,1,0-9.14-9.58"/></g></svg>